<svg width="90" height="90" viewBox="0 0 90 90" fill="none" xmlns="http://www.w3.org/2000/svg">
<g filter="url(#filter0_i_71_716)">
<path d="M62.8366 3.17648H27.8913L3.17645 27.8913V62.8366L27.8913 87.5515H62.8366L87.5515 62.8366V27.8913L62.8366 3.17648Z" fill="#FB4E4E"/>
</g>
<path d="M62.8366 3.17648H27.8913L3.17645 27.8913V62.8366L27.8913 87.5515H62.8366L87.5515 62.8366V27.8913L62.8366 3.17648Z" stroke="#DF0000"/>
<path d="M25.3423 49.1992C25.3423 50.3682 25.0391 51.4185 24.4326 52.3501C23.835 53.2817 22.9561 54.0112 21.7959 54.5386C20.6357 55.0659 19.2603 55.3296 17.6694 55.3296C15.7622 55.3296 14.189 54.9692 12.9497 54.2485C12.0708 53.73 11.3545 53.04 10.8008 52.1787C10.2559 51.3086 9.9834 50.4648 9.9834 49.6475C9.9834 49.1729 10.146 48.7686 10.4712 48.4346C10.8052 48.0918 11.2271 47.9204 11.7368 47.9204C12.1499 47.9204 12.4971 48.0522 12.7783 48.3159C13.0684 48.5796 13.3145 48.9707 13.5166 49.4893C13.7627 50.1045 14.0264 50.6187 14.3076 51.0317C14.5977 51.4448 15.002 51.7876 15.5205 52.0601C16.0391 52.3237 16.7202 52.4556 17.564 52.4556C18.7241 52.4556 19.6646 52.1875 20.3853 51.6514C21.1147 51.1064 21.4795 50.4297 21.4795 49.6211C21.4795 48.9795 21.2817 48.4609 20.8862 48.0654C20.4995 47.6611 19.9941 47.3535 19.3701 47.1426C18.7549 46.9316 17.9287 46.7075 16.8916 46.4702C15.5029 46.145 14.3384 45.7671 13.3979 45.3364C12.4663 44.897 11.7236 44.3037 11.1699 43.5566C10.625 42.8008 10.3525 41.8647 10.3525 40.7485C10.3525 39.6851 10.6426 38.7402 11.2227 37.9141C11.8027 37.0879 12.6421 36.4551 13.7407 36.0156C14.8394 35.5674 16.1313 35.3433 17.6167 35.3433C18.8032 35.3433 19.8271 35.4927 20.6885 35.7915C21.5586 36.0815 22.2793 36.4727 22.8506 36.9648C23.4219 37.4482 23.8394 37.958 24.103 38.4941C24.3667 39.0303 24.4985 39.5532 24.4985 40.063C24.4985 40.5288 24.3315 40.9507 23.9976 41.3286C23.6724 41.6978 23.2637 41.8823 22.7715 41.8823C22.3232 41.8823 21.9805 41.7725 21.7432 41.5527C21.5146 41.3242 21.2642 40.9551 20.9917 40.4453C20.6401 39.7158 20.2183 39.1489 19.7261 38.7446C19.2339 38.3315 18.4429 38.125 17.353 38.125C16.3423 38.125 15.5249 38.3491 14.9009 38.7974C14.2856 39.2368 13.978 39.7686 13.978 40.3926C13.978 40.7793 14.0835 41.1133 14.2944 41.3945C14.5054 41.6758 14.7954 41.9175 15.1646 42.1196C15.5337 42.3218 15.9072 42.48 16.2852 42.5942C16.6631 42.7085 17.2871 42.8755 18.1572 43.0952C19.2471 43.3501 20.2314 43.6313 21.1104 43.939C21.998 44.2466 22.7495 44.6201 23.3647 45.0596C23.9888 45.499 24.4722 46.0571 24.8149 46.7339C25.1665 47.4019 25.3423 48.2236 25.3423 49.1992ZM41.2153 38.9028H36.9438V52.9434C36.9438 53.752 36.7637 54.354 36.4033 54.7495C36.043 55.1362 35.5771 55.3296 35.0059 55.3296C34.4258 55.3296 33.9512 55.1318 33.582 54.7363C33.2217 54.3408 33.0415 53.7432 33.0415 52.9434V38.9028H28.77C28.1021 38.9028 27.6055 38.7578 27.2803 38.4678C26.9551 38.1689 26.7925 37.7778 26.7925 37.2944C26.7925 36.7935 26.9595 36.3979 27.2935 36.1079C27.6362 35.8179 28.1284 35.6729 28.77 35.6729H41.2153C41.8921 35.6729 42.3931 35.8223 42.7183 36.1211C43.0522 36.4199 43.2192 36.811 43.2192 37.2944C43.2192 37.7778 43.0522 38.1689 42.7183 38.4678C42.3843 38.7578 41.8833 38.9028 41.2153 38.9028ZM53.6738 35.3433C55.6777 35.3433 57.396 35.752 58.8286 36.5693C60.27 37.3779 61.3599 38.5337 62.0981 40.0366C62.8364 41.5308 63.2056 43.2886 63.2056 45.3101C63.2056 46.8042 63.0034 48.1621 62.5991 49.3838C62.1948 50.6055 61.5884 51.6646 60.7798 52.561C59.9712 53.4575 58.978 54.1431 57.8003 54.6177C56.6226 55.0923 55.2734 55.3296 53.7529 55.3296C52.2412 55.3296 50.8877 55.0879 49.6924 54.6045C48.4971 54.1123 47.4995 53.4224 46.6997 52.5347C45.8999 51.647 45.2935 50.5791 44.8804 49.3311C44.4761 48.083 44.2739 46.7339 44.2739 45.2837C44.2739 43.7983 44.4849 42.436 44.9067 41.1968C45.3374 39.9575 45.957 38.9028 46.7656 38.0327C47.5742 37.1626 48.5586 36.499 49.7188 36.042C50.8789 35.5762 52.1973 35.3433 53.6738 35.3433ZM59.2373 45.2837C59.2373 43.8687 59.0088 42.6426 58.5518 41.6055C58.0947 40.5684 57.4399 39.7861 56.5874 39.2588C55.7437 38.7227 54.7725 38.4546 53.6738 38.4546C52.8916 38.4546 52.1665 38.604 51.4985 38.9028C50.8394 39.1929 50.2681 39.6191 49.7847 40.1816C49.3101 40.7441 48.9321 41.4648 48.6509 42.3438C48.3784 43.2139 48.2422 44.1938 48.2422 45.2837C48.2422 46.3823 48.3784 47.3755 48.6509 48.2632C48.9321 49.1509 49.3232 49.8892 49.8242 50.478C50.334 51.0581 50.9141 51.4932 51.5645 51.7832C52.2236 52.0732 52.9443 52.2183 53.7266 52.2183C54.7285 52.2183 55.647 51.9678 56.4819 51.4668C57.3257 50.9658 57.9937 50.1924 58.4858 49.1465C58.9868 48.1006 59.2373 46.813 59.2373 45.2837ZM74.0557 47.4722H70.4697V52.9434C70.4697 53.7256 70.2852 54.3188 69.916 54.7231C69.5469 55.1274 69.0811 55.3296 68.5186 55.3296C67.9297 55.3296 67.4551 55.1318 67.0947 54.7363C66.7344 54.332 66.5542 53.7432 66.5542 52.9697V38.0723C66.5542 37.2109 66.752 36.5957 67.1475 36.2266C67.543 35.8574 68.1714 35.6729 69.0327 35.6729H74.0557C75.541 35.6729 76.6836 35.7871 77.4834 36.0156C78.2744 36.2354 78.9556 36.6001 79.5269 37.1099C80.1069 37.6196 80.5464 38.2437 80.8452 38.9819C81.144 39.7202 81.2935 40.5508 81.2935 41.4736C81.2935 43.4424 80.687 44.9365 79.4741 45.9561C78.2612 46.9668 76.4551 47.4722 74.0557 47.4722ZM73.1064 38.6128H70.4697V44.519H73.1064C74.0293 44.519 74.7983 44.4224 75.4136 44.229C76.0376 44.0356 76.5122 43.7192 76.8374 43.2798C77.1626 42.8403 77.3252 42.2646 77.3252 41.5527C77.3252 40.7002 77.0747 40.0059 76.5737 39.4697C76.0112 38.8984 74.8555 38.6128 73.1064 38.6128Z" fill="white"/>
<defs>
<filter id="filter0_i_71_716" x="2.67645" y="2.67648" width="85.375" height="87.375" filterUnits="userSpaceOnUse" color-interpolation-filters="sRGB">
<feFlood flood-opacity="0" result="BackgroundImageFix"/>
<feBlend mode="normal" in="SourceGraphic" in2="BackgroundImageFix" result="shape"/>
<feColorMatrix in="SourceAlpha" type="matrix" values="0 0 0 0 0 0 0 0 0 0 0 0 0 0 0 0 0 0 127 0" result="hardAlpha"/>
<feOffset dy="2"/>
<feGaussianBlur stdDeviation="8"/>
<feComposite in2="hardAlpha" operator="arithmetic" k2="-1" k3="1"/>
<feColorMatrix type="matrix" values="0 0 0 0 0 0 0 0 0 0 0 0 0 0 0 0 0 0 0.18 0"/>
<feBlend mode="normal" in2="shape" result="effect1_innerShadow_71_716"/>
</filter>
</defs>
</svg>
